<?xml version="1.0" standalone="no"?>
<!DOCTYPE svg PUBLIC "-//W3C//DTD SVG 20010904//EN"
 "http://www.w3.org/TR/2001/REC-SVG-20010904/DTD/svg10.dtd">
<svg version="1.0" xmlns="http://www.w3.org/2000/svg"
 width="1254.000000pt" height="1254.000000pt" viewBox="0 0 1254.000000 1254.000000"
 preserveAspectRatio="xMidYMid meet">

<g transform="translate(0.000000,1254.000000) scale(0.100000,-0.100000)"
fill="#000000" stroke="none">
<path d="M0 6270 l0 -6270 6270 0 6270 0 0 6270 0 6270 -6270 0 -6270 0 0
-6270z m6675 5829 c657 -46 1330 -218 1915 -489 523 -242 1081 -619 1486
-1003 49 -46 102 -95 117 -108 45 -38 307 -324 402 -438 371 -447 707 -1009
940 -1571 219 -530 353 -1057 422 -1670 25 -223 25 -885 0 -1120 -95 -876
-340 -1643 -762 -2381 -98 -171 -319 -502 -430 -644 -415 -532 -890 -967
-1432 -1311 -768 -489 -1592 -779 -2499 -879 -199 -22 -651 -30 -869 -16 -960
65 -1853 359 -2686 887 -547 347 -1066 813 -1452 1307 -731 935 -1123 1899
-1244 3062 -22 213 -25 832 -5 1025 85 823 281 1488 646 2195 381 738 870
1349 1496 1867 671 555 1394 930 2177 1128 396 101 733 149 1213 174 93 5 402
-3 565 -15z"/>
<path d="M5935 11809 c-703 -48 -1354 -220 -1950 -514 -749 -370 -1449 -947
-1965 -1620 -364 -475 -686 -1081 -885 -1665 -272 -802 -353 -1696 -229 -2548
71 -491 224 -1019 415 -1427 20 -44 55 -118 76 -165 150 -322 633 -1065 656
-1007 3 6 6 -1 6 -16 1 -18 15 -43 39 -69 l38 -40 13 83 c25 170 87 393 136
489 48 94 244 279 355 335 l47 24 133 -134 134 -134 -37 -118 c-45 -145 -83
-328 -99 -486 l-12 -119 -91 -75 c-112 -94 -245 -219 -245 -231 0 -15 229
-232 360 -341 173 -145 521 -401 544 -401 2 0 7 53 11 118 4 64 15 180 26 257
10 77 19 142 19 146 0 9 531 263 627 300 18 7 69 -23 305 -177 156 -102 298
-196 317 -207 l33 -22 -6 -161 c-5 -150 -43 -429 -66 -490 -6 -14 -41 -42 -87
-69 -100 -59 -277 -145 -300 -145 -32 0 2 -21 103 -61 184 -74 609 -209 657
-209 17 0 40 34 89 132 29 58 42 72 108 116 138 93 276 230 376 372 33 47 56
70 69 70 11 0 31 7 43 16 13 9 26 14 29 11 9 -10 -97 -200 -167 -299 -77 -110
-264 -302 -373 -382 -43 -32 -77 -60 -75 -62 7 -7 236 -54 360 -74 825 -133
1665 -60 2493 215 552 184 1102 474 1578 832 447 338 875 794 1201 1282 42 63
76 119 76 123 0 5 18 36 40 68 22 32 40 63 40 68 0 13 -91 114 -98 108 -2 -3
10 -17 27 -32 17 -14 30 -33 29 -42 -2 -9 4 -17 12 -17 23 -1 16 -29 -21 -86
l-32 -51 -63 69 c-67 72 -86 107 -32 57 18 -16 26 -20 18 -9 -16 21 -42 41
-49 36 -1 -2 -62 55 -135 126 -273 269 -500 425 -744 513 -34 13 -61 24 -60
24 2 1 80 -1 174 -5 195 -8 204 -10 348 -103 193 -124 385 -290 545 -470 l94
-106 35 58 c161 265 391 800 501 1162 218 724 291 1516 206 2240 -108 913
-407 1732 -912 2500 -429 651 -997 1215 -1633 1621 -287 183 -661 374 -945
482 -698 266 -1495 386 -2230 336z m308 -220 c-12 -12 -170 -85 -293 -136
-309 -126 -530 -264 -758 -475 -307 -283 -508 -674 -490 -955 3 -40 4 -73 2
-73 -1 0 -12 28 -24 63 -27 78 -37 221 -21 308 101 580 776 1123 1591 1278 2
1 -1 -4 -7 -10z m1160 -283 c79 -13 110 -26 66 -26 -148 -2 -403 -12 -479 -21
-399 -43 -738 -176 -1015 -397 l-70 -57 75 83 c41 45 75 85 75 89 1 18 20 35
98 86 197 130 460 227 698 257 98 12 453 3 552 -14z m-1353 -329 c0 -2 -15
-14 -32 -27 l-33 -23 24 26 c21 23 41 35 41 24z m1323 -119 c-5 -7 -38 -52
-72 -100 -35 -49 -65 -88 -68 -88 -6 0 3 14 57 90 74 104 75 99 -15 73 -11 -3
-17 -2 -13 2 6 6 90 32 112 34 5 1 4 -5 -1 -11z m-793 -22 c0 -2 -8 -10 -17
-17 -16 -13 -17 -12 -4 4 13 16 21 21 21 13z m24 -31 c-9 -14 -18 -25 -21 -25
-5 0 5 18 20 38 17 22 18 13 1 -13z m-2159 -167 c1 -127 5 -166 23 -226 34
-116 34 -119 23 -101 -13 20 -48 151 -56 214 -9 61 -16 75 -26 49 -14 -34 -9
-107 12 -204 31 -141 32 -176 3 -80 -22 71 -27 106 -28 208 -1 109 1 125 17
137 10 7 17 22 15 32 -3 12 -23 -19 -56 -85 -68 -133 -88 -184 -122 -312 -16
-58 -29 -96 -29 -84 -1 11 10 60 23 110 42 153 40 142 21 119 -24 -28 -103
-188 -132 -264 -72 -193 -87 -441 -35 -596 l19 -56 -29 28 c-65 61 -98 166
-98 307 0 274 129 571 375 860 44 52 80 95 80 95 0 1 0 -68 0 -151z m2785 18
c0 -2 -8 -10 -17 -17 -16 -13 -17 -12 -4 4 13 16 21 21 21 13z m244 -201 c130
-27 317 -115 431 -200 65 -49 238 -205 233 -211 -2 -1 -35 6 -73 16 -39 10
-60 19 -47 19 13 1 21 5 18 10 -3 5 -58 44 -121 86 -119 78 -256 151 -335 178
-90 30 -245 49 -369 46 -126 -4 -129 -2 -41 32 97 38 201 46 304 24z m-2921
-265 c15 -30 21 -46 12 -35 -21 26 -51 83 -59 115 l-6 25 12 -25 c6 -14 25
-50 41 -80z m48 -122 c15 -28 5 -21 -21 15 -15 20 -17 27 -6 18 9 -8 22 -23
27 -33z m3396 26 c-3 -3 -12 -4 -19 -1 -8 3 -5 6 6 6 11 1 17 -2 13 -5z m-50
-10 c-3 -3 -12 -4 -19 -1 -8 3 -5 6 6 6 11 1 17 -2 13 -5z m-4266 -188 c40
-125 137 -245 262 -325 37 -24 67 -46 67 -48 0 -4 -25 10 -111 63 -77 48 -219
234 -219 288 0 9 -4 16 -10 16 -9 0 -14 -70 -15 -195 0 -22 4 -65 8 -95 5 -38
4 -50 -3 -40 -5 8 -10 25 -10 38 0 12 -4 22 -10 22 -15 0 -12 -124 4 -201 13
-61 66 -180 98 -220 8 -9 22 -19 33 -21 16 -4 13 -8 -18 -21 -43 -18 -162
-100 -222 -152 -38 -33 -39 -35 -15 -35 14 0 50 6 80 14 l55 14 -26 -21 c-61
-53 -168 -201 -259 -361 l-33 -59 89 89 c49 50 105 101 124 114 l35 23 -36
-39 c-53 -56 -182 -250 -228 -341 -42 -85 -115 -273 -108 -280 3 -2 17 18 32
44 32 54 143 201 170 223 10 8 -3 -15 -28 -50 -110 -159 -217 -474 -217 -641
0 -33 -3 -59 -7 -57 -5 2 -29 18 -55 37 l-48 35 0 82 c0 331 107 693 283 954
61 90 101 139 136 162 14 10 21 18 15 18 -14 0 -171 -63 -216 -86 l-32 -16 31
38 c73 92 263 258 340 298 18 9 54 16 80 17 l48 1 -39 9 c-22 5 -46 15 -54 22
-25 20 -60 110 -76 197 -22 115 -20 216 8 350 27 129 67 247 74 215 3 -11 13
-46 23 -79z m4102 32 c160 -68 388 -249 562 -446 83 -95 192 -239 230 -306 30
-51 2 -17 -65 82 -34 51 -95 129 -135 175 -82 93 -290 297 -304 297 -14 0 -7
-30 9 -40 8 -5 19 -6 25 -3 5 4 7 3 3 -2 -4 -4 -2 -15 5 -23 11 -14 -36 17
-162 106 -62 44 -211 128 -269 152 -26 10 -40 19 -32 19 26 1 152 -64 260
-133 56 -37 107 -63 113 -60 7 4 9 4 5 -1 -9 -9 9 -35 24 -35 5 0 6 6 1 13 -4
6 -8 16 -8 21 0 16 -131 104 -232 156 -103 52 -117 65 -30 28z m-4064 -213 c0
-5 -8 6 -19 25 -11 19 -19 40 -19 45 0 6 8 -6 19 -25 11 -19 19 -39 19 -45z
m26 -41 c9 -15 12 -23 6 -20 -11 7 -35 46 -28 46 3 0 12 -12 22 -26z m4272 -9
c23 -14 43 -28 43 -31 0 -4 -83 40 -99 53 -18 13 21 -2 56 -22z m-4232 -45
c10 -11 16 -20 13 -20 -3 0 -13 9 -23 20 -10 11 -16 20 -13 20 3 0 13 -9 23
-20z m4370 -49 c89 -68 167 -131 160 -131 -6 0 -182 134 -229 173 -37 32 7 5
69 -42z m-4257 -4 c6 3 12 0 12 -5 0 -5 14 -15 30 -22 17 -7 29 -15 26 -17 -8
-8 -113 47 -132 69 -16 19 -14 18 16 -4 19 -14 41 -23 48 -21z m3632 -58 c284
-50 567 -251 757 -537 273 -412 400 -1036 331 -1627 -10 -92 -51 -249 -70
-272 -8 -10 0 -13 38 -13 129 0 273 -69 389 -185 70 -70 91 -99 134 -186 28
-57 60 -140 71 -184 22 -86 37 -235 21 -200 -7 14 -10 -6 -10 -71 -1 -101 -20
-215 -57 -343 -28 -98 -46 -126 -32 -51 9 52 7 119 -3 90 -3 -8 -24 -72 -47
-142 -40 -122 -111 -293 -119 -285 -2 2 3 31 11 63 26 107 28 120 18 109 -6
-5 -24 -44 -41 -85 -39 -93 -124 -243 -163 -290 -16 -19 -76 -98 -133 -175
-57 -77 -117 -156 -133 -175 l-31 -35 50 144 c27 80 48 152 46 160 -1 9 -9 -2
-16 -24 -23 -67 -73 -160 -232 -431 -231 -394 -362 -577 -535 -749 -271 -270
-550 -389 -909 -389 -169 1 -273 17 -418 66 -146 48 -384 169 -372 188 3 5 0
12 -6 16 -8 4 -9 3 -5 -4 14 -23 -12 -11 -83 38 -39 28 -69 55 -66 60 3 5 0
12 -6 16 -8 4 -9 3 -5 -4 4 -7 3 -12 -2 -12 -12 0 -33 25 -27 32 3 3 -3 11
-12 19 -16 13 -17 12 -4 -3 7 -10 9 -18 3 -18 -12 0 -34 25 -27 32 3 3 -3 11
-12 19 -16 13 -17 12 -4 -4 23 -29 1 -19 -50 24 -27 22 -46 46 -42 51 3 6 1 8
-5 5 -5 -4 -54 32 -109 79 -235 205 -364 329 -310 298 7 -4 9 -3 4 2 -5 5 -11
8 -13 6 -3 -2 -46 35 -95 82 -50 47 -95 86 -100 86 -29 0 115 -198 168 -231
18 -11 33 -23 33 -26 0 -3 -10 2 -23 10 -13 8 -73 45 -133 82 -305 188 -483
335 -573 475 -17 26 -21 29 -15 11 7 -26 88 -165 112 -194 8 -9 13 -19 10 -22
-8 -9 -195 173 -257 251 -69 85 -130 186 -179 294 l-33 75 6 -60 c3 -33 14
-89 24 -123 11 -34 18 -62 16 -62 -8 0 -105 168 -128 222 -49 111 -68 197 -74
328 -5 107 -2 139 16 210 51 206 197 391 369 468 l42 19 -26 24 c-41 38 -127
157 -177 244 -106 186 -194 430 -239 670 -19 102 -23 153 -22 345 0 195 3 239
22 326 66 304 198 551 406 760 198 199 413 314 699 376 85 18 134 22 292 22
167 0 205 -3 315 -27 69 -14 151 -35 184 -46 49 -17 56 -18 45 -5 -7 9 37 -9
98 -39 61 -31 113 -54 116 -51 6 6 150 -81 167 -101 21 -25 34 -16 63 46 47
99 247 349 280 349 6 0 0 -11 -13 -25 -13 -14 -19 -25 -13 -25 5 0 18 9 27 19
25 28 140 103 213 140 74 37 211 78 303 91 71 9 222 4 310 -11z m780 -115 c28
-31 24 -29 -20 10 -74 66 -80 73 -45 48 17 -11 46 -37 65 -58z m169 -190 c47
-68 16 -34 -48 51 -29 39 -37 54 -19 34 18 -20 48 -59 67 -85z m136 -94 c9
-16 13 -30 11 -30 -3 0 -12 14 -21 30 -9 17 -13 30 -11 30 3 0 12 -13 21 -30z
m45 -84 c0 -12 -5 -7 -19 24 -11 24 -11 24 3 6 9 -11 16 -24 16 -30z m40 -80
c0 -12 -5 -7 -19 24 -11 24 -11 24 3 6 9 -11 16 -24 16 -30z m1020 -318 c218
-66 417 -254 549 -517 49 -96 108 -282 132 -416 30 -164 30 -389 0 -568 -48
-288 -176 -576 -350 -785 -100 -120 -263 -242 -387 -291 l-50 -19 -3 86 c-2
94 -31 246 -62 327 -10 28 -19 52 -19 53 0 2 18 -11 40 -28 24 -19 40 -26 40
-18 0 7 -16 58 -35 113 -19 54 -32 101 -30 104 3 2 5 -2 5 -9 0 -27 39 22 74
94 100 203 106 476 15 674 -12 26 -21 50 -21 54 1 5 -2 7 -7 5 -9 -2 -71 70
-71 82 1 3 17 -12 37 -34 l36 -40 -7 42 c-6 39 -5 42 26 52 67 24 159 5 225
-45 19 -14 41 -27 48 -28 8 -1 18 -6 22 -11 4 -4 2 -5 -4 -1 -18 10 -16 -9 2
-24 27 -23 58 -71 81 -129 13 -31 24 -49 24 -41 0 22 -38 100 -67 138 -14 18
-22 36 -19 39 3 3 -1 15 -9 27 -8 11 -15 25 -15 31 0 5 5 3 10 -5 8 -12 12
-12 18 -2 7 10 11 10 22 -2 7 -9 16 -13 21 -10 5 3 9 1 9 -5 0 -5 9 -13 20
-16 11 -4 18 -11 15 -16 -4 -5 -1 -9 5 -9 7 0 10 -6 7 -13 -7 -19 18 -48 42
-50 26 -2 34 -29 30 -91 -2 -24 -1 -42 2 -40 14 8 19 167 9 267 -24 243 -128
474 -256 571 -96 74 -237 98 -336 60 -213 -84 -368 -310 -472 -689 -13 -46
-14 -31 -15 195 -1 226 -19 507 -40 640 -9 54 -8 56 27 99 89 109 240 193 398
221 69 12 207 1 284 -22z m-7055 -86 c-50 -44 -166 -131 -151 -114 28 32 14
27 -77 -26 -101 -60 -127 -74 -127 -69 0 3 64 42 143 88 78 45 158 93 177 106
34 23 53 31 35 15z m-185 -146 c0 -2 -21 -20 -47 -41 l-48 -37 45 41 c45 41
50 45 50 37z m-200 -81 c0 -2 -10 -9 -22 -15 -22 -11 -22 -10 -4 4 21 17 26
19 26 11z m100 1 c0 -2 -19 -19 -42 -36 l-43 -32 40 36 c40 36 45 39 45 32z
m-90 -70 c0 -2 -8 -10 -17 -17 -16 -13 -17 -12 -4 4 13 16 21 21 21 13z m-130
-100 c0 -2 -8 -10 -17 -17 -16 -13 -17 -12 -4 4 13 16 21 21 21 13z m1186 -67
c-18 -81 -47 -278 -56 -389 l-7 -85 -1 121 c-2 132 4 179 44 327 30 109 43
126 20 26z m-1226 37 c0 -2 -8 -10 -17 -17 -16 -13 -17 -12 -4 4 13 16 21 21
21 13z m-110 -80 c0 -2 -8 -10 -17 -17 -16 -13 -17 -12 -4 4 13 16 21 21 21
13z m822 -400 c52 -13 126 -40 165 -60 79 -39 202 -134 261 -201 111 -126 327
-681 420 -1080 l19 -80 -43 -80 c-55 -102 -109 -247 -131 -350 -9 -44 -18 -81
-19 -83 -8 -12 -110 57 -152 103 -156 170 -102 480 84 487 40 1 87 -29 92 -58
2 -13 -2 -11 -13 8 -17 31 -43 41 -78 33 -56 -14 -104 -105 -112 -207 l-4 -63
10 65 c13 88 56 175 86 174 12 0 20 3 18 7 -3 4 1 9 8 12 7 3 12 -4 12 -19 0
-15 -6 -24 -15 -24 -13 0 -13 -1 0 -10 13 -8 12 -13 -4 -42 -15 -25 -16 -30
-4 -20 13 10 17 10 22 -4 4 -10 12 -14 22 -10 12 5 15 2 10 -9 -3 -9 -2 -13 3
-10 5 3 12 1 15 -4 4 -5 2 -13 -4 -16 -6 -4 -1 -14 13 -25 20 -16 24 -27 21
-60 -2 -26 0 -39 7 -35 6 4 7 -3 3 -19 -11 -47 2 -27 30 42 14 37 46 100 70
141 l43 74 -18 78 c-22 91 -89 303 -95 297 -2 -3 0 -19 5 -36 6 -20 6 -32 0
-32 -5 0 -9 -6 -9 -14 0 -7 -8 -31 -17 -52 -9 -22 -16 -42 -15 -46 1 -5 -3 -8
-9 -8 -5 0 -7 -4 -4 -10 3 -5 4 -10 1 -10 -3 0 -17 21 -30 48 -14 26 -25 43
-26 39 0 -4 11 -29 24 -55 29 -57 78 -193 72 -199 -2 -2 -16 29 -31 69 -136
359 -384 663 -650 795 -92 46 -149 58 -270 58 -106 0 -113 -1 -188 -37 -136
-65 -227 -184 -279 -363 -19 -68 -23 -103 -22 -230 0 -129 4 -163 26 -247 15
-53 45 -136 67 -184 46 -97 135 -236 176 -274 15 -14 4 7 -25 45 -62 82 -105
168 -121 241 -12 51 -11 53 16 78 30 28 40 33 29 14 -5 -9 -2 -8 9 1 10 8 15
16 12 19 -3 3 4 12 16 20 11 8 23 11 26 8 4 -3 2 -6 -3 -6 -6 0 -8 -17 -5 -37
4 -34 6 -30 17 36 25 148 77 242 155 281 43 22 119 26 137 8 8 -8 12 -47 13
-108 0 -52 4 -113 8 -135 l9 -40 2 35 c1 19 6 49 10 65 4 17 5 -8 3 -55 -13
-225 122 -485 311 -599 50 -30 182 -79 259 -96 l29 -6 -40 -29 c-80 -58 -115
-70 -204 -70 -65 -1 -79 -3 -64 -11 12 -7 61 -10 135 -7 128 6 202 27 296 87
l50 32 3 -45 c2 -27 -3 -58 -13 -78 l-16 -33 36 40 c31 34 35 36 24 13 -7 -16
-17 -28 -22 -28 -5 0 -4 -7 3 -15 10 -12 3 -24 -44 -70 -31 -31 -56 -53 -56
-50 0 4 -13 -5 -30 -18 -76 -64 -262 -99 -427 -79 -54 6 -136 22 -183 36 -47
13 -86 23 -88 21 -7 -7 130 -46 218 -61 166 -29 378 -2 463 58 16 11 30 18 33
16 10 -10 -89 -67 -130 -75 -11 -2 -29 -11 -40 -21 -11 -9 -16 -11 -12 -4 5 8
0 12 -16 12 -19 0 -20 -2 -8 -10 11 -8 7 -9 -15 -4 -23 5 -27 4 -19 -5 20 -22
61 -19 90 5 38 33 43 30 9 -6 -18 -19 -35 -28 -46 -25 -10 3 -20 1 -23 -4 -4
-6 -13 -8 -21 -5 -8 4 -12 10 -9 15 3 5 1 9 -3 9 -5 0 -13 -8 -20 -18 -8 -14
-19 -18 -44 -14 -31 5 -32 5 -10 13 12 5 28 6 33 2 7 -4 8 -1 3 7 -4 7 -2 16
6 21 9 6 0 9 -26 8 -31 0 -36 -2 -20 -9 21 -9 13 -12 -32 -13 -12 0 -20 -4
-17 -9 3 -5 -3 -12 -14 -15 -13 -3 -19 -12 -17 -22 2 -11 -4 -18 -18 -19 -31
-3 -128 18 -123 26 2 4 -8 7 -22 7 -15 1 -43 4 -62 8 -69 15 -5 -11 80 -32
205 -51 420 -48 595 10 126 42 135 49 124 96 -10 46 -10 78 0 43 27 -89 28
-88 -52 -125 -306 -146 -768 -76 -1112 166 -316 224 -519 549 -612 982 -14 64
-18 128 -18 292 0 194 3 218 27 315 47 189 102 311 199 441 86 117 221 226
346 280 149 64 338 77 505 35z m6679 -43 c13 -16 12 -17 -3 -4 -10 7 -18 15
-18 17 0 8 8 3 21 -13z m-7916 -223 c-3 -5 -20 -19 -38 -30 l-32 -22 35 31
c35 32 46 38 35 21z m7736 -76 c73 -21 157 -105 189 -190 32 -82 37 -193 15
-289 -14 -60 -16 -81 -7 -101 25 -53 10 -35 -46 56 -32 52 -77 122 -101 155
-52 71 -205 224 -261 261 -44 30 -42 44 15 83 63 43 113 49 196 25z m-6491
-707 c0 -2 -10 -12 -22 -23 l-23 -19 19 23 c18 21 26 27 26 19z m-114 -193
c-8 -21 -15 -34 -15 -28 -1 15 20 76 25 71 2 -2 -2 -21 -10 -43z m7533 -69
c-18 -25 -40 -51 -48 -58 -8 -7 5 14 28 46 51 68 67 77 20 12z m-101 -127
c-23 -28 -43 -57 -43 -62 -1 -6 -7 -10 -15 -8 -11 3 -11 0 2 -15 9 -10 18 -31
19 -48 2 -16 8 -36 13 -43 6 -8 12 -23 13 -35 2 -12 10 -28 18 -37 9 -9 26
-45 40 -80 20 -51 77 -164 91 -179 2 -2 22 8 44 23 25 16 40 22 39 14 -3 -27
1 -38 17 -38 8 0 12 -4 9 -10 -3 -5 -1 -10 6 -10 8 0 7 -5 -2 -17 -13 -15 -12
-15 6 -5 11 7 30 19 43 28 43 32 21 8 -28 -30 -63 -48 -114 -111 -104 -128 10
-15 14 -40 17 -90 1 -21 4 -38 7 -38 3 0 6 -21 8 -47 2 -26 6 -51 10 -57 3 -6
8 -20 9 -31 2 -11 11 -24 19 -28 14 -8 12 -13 -12 -34 -39 -33 50 28 226 157
201 147 672 484 690 494 27 14 -32 -32 -172 -134 -86 -63 -135 -105 -132 -114
3 -7 -2 -19 -10 -26 -9 -7 -14 -16 -11 -20 3 -4 -84 -70 -193 -146 -181 -126
-392 -282 -392 -289 0 -2 8 -1 19 2 20 5 40 -15 25 -26 -13 -8 -15 -111 -3
-111 5 0 9 -5 9 -11 0 -5 -5 -7 -12 -3 -7 4 -2 -6 10 -23 l22 -31 -27 -22
c-56 -43 16 0 189 114 95 62 277 177 403 256 127 78 273 169 325 202 l95 60
-90 -86 c-49 -47 -94 -85 -100 -85 -5 0 10 18 35 39 52 46 47 52 -9 14 -28
-18 -38 -31 -36 -45 6 -31 -240 -245 -592 -516 -190 -146 -241 -188 -176 -146
19 12 24 14 19 4 -5 -8 -10 -28 -12 -45 -3 -33 -28 -89 -36 -81 -3 3 1 -27 9
-67 17 -87 11 -250 -12 -348 l-16 -65 32 -25 c70 -53 81 -69 18 -24 l-66 47
19 71 c25 88 29 284 9 366 -7 30 -28 87 -46 126 -64 141 -134 228 -265 331
l-66 51 -2 74 c-8 226 -90 425 -225 543 -42 37 -182 118 -235 136 -8 3 -9 14
-4 33 7 25 18 32 82 55 152 54 302 154 437 292 43 43 80 79 81 79 2 0 -16 -23
-40 -52z m-6683 -46 c-8 -8 -25 10 -19 20 4 6 9 5 15 -3 4 -7 6 -15 4 -17z
m7845 -366 c0 -8 -332 -237 -336 -233 -3 3 323 234 334 236 1 1 2 -1 2 -3z
m-740 -30 c0 -2 -8 -10 -17 -17 -16 -13 -17 -12 -4 4 13 16 21 21 21 13z
m-7039 -293 c-3 -63 -5 -72 -11 -45 -11 46 -2 122 13 122 1 0 0 -35 -2 -77z
m-4 -145 c-2 -13 -4 -5 -4 17 -1 22 1 32 4 23 2 -10 2 -28 0 -40z m-1397 -53
c13 -14 21 -25 18 -25 -2 0 -15 11 -28 25 -13 14 -21 25 -18 25 2 0 15 -11 28
-25z m190 -142 c204 -136 441 -218 689 -239 44 -4 81 -9 81 -11 0 -3 -16 -23
-35 -46 -44 -51 -80 -126 -101 -209 -15 -59 -16 -132 -1 -303 2 -27 -3 -33
-53 -59 -343 -180 -653 -478 -845 -814 -53 -93 -72 -107 -25 -18 34 64 32 86
-7 61 -14 -10 -22 -12 -19 -6 4 6 20 18 36 26 27 14 29 14 23 -2 -7 -21 5 -12
21 15 9 15 118 164 170 231 8 11 8 13 -1 7 -9 -5 -13 -1 -13 13 0 11 -4 23
-10 26 -5 3 -10 14 -10 23 0 9 -14 33 -30 52 -16 19 -31 42 -31 50 -5 51 5
147 17 165 8 12 11 24 8 28 -3 3 3 12 15 19 12 7 21 21 21 31 0 10 5 15 10 12
14 -9 13 8 -2 23 -9 9 -9 15 0 24 16 16 15 50 0 67 -7 8 -8 11 -2 8 7 -4 10
10 10 43 -1 31 -5 46 -11 42 -6 -4 -3 1 8 10 17 16 17 18 0 28 -14 9 -17 22
-14 56 1 24 0 44 -4 44 -4 0 -40 -28 -79 -63 -121 -107 -421 -343 -516 -406
-35 -23 -35 -23 5 14 22 20 35 34 29 31 -6 -3 -16 6 -22 19 -9 19 -9 25 1 26
9 0 9 2 0 6 -10 3 -10 10 -2 25 11 20 8 19 -35 -6 -25 -15 -46 -25 -46 -22 0
6 195 132 480 309 245 153 290 186 290 212 0 8 6 15 13 15 9 0 9 2 -1 9 -8 4
-14 12 -14 16 0 4 6 12 14 16 7 5 8 9 2 9 -6 0 -10 22 -10 55 1 30 5 55 10 55
5 0 3 6 -3 13 -6 8 -7 17 -3 21 4 4 8 12 8 17 1 5 3 12 4 17 1 4 1 22 0 41 -1
22 2 31 9 27 6 -4 11 0 11 8 0 8 -4 18 -10 21 -5 3 -10 13 -10 21 0 10 5 12
13 8 9 -6 9 -4 1 7 -6 8 -10 22 -9 31 2 10 -16 29 -48 51 -29 20 -72 54 -97
77 l-45 42 45 -35 c25 -19 79 -57 120 -84z m962 75 c-8 -8 -8 -17 -1 -31 8
-14 7 -22 -2 -31 -9 -8 -10 -8 -5 2 4 7 3 19 -3 26 -13 15 -4 46 12 46 8 0 7
-4 -1 -12z m-163 -94 c-6 -7 -15 -11 -21 -8 -5 3 -4 12 3 20 6 7 15 11 21 8 5
-3 4 -12 -3 -20z m81 -14 c12 -8 11 -10 -7 -10 -13 0 -23 5 -23 10 0 13 11 13
30 0z m-1156 -114 c-4 -9 -13 -15 -20 -12 -19 7 -79 -29 -65 -39 7 -3 20 4 30
17 11 13 22 20 26 17 3 -4 -31 -40 -77 -82 -124 -112 -166 -142 -64 -45 59 56
86 87 78 92 -15 9 -34 -2 -27 -15 3 -5 0 -7 -7 -4 -7 3 -36 -10 -63 -28 -83
-54 -125 -79 -125 -74 0 7 234 156 280 178 39 19 43 19 34 -5z m1396 -66 c-8
-5 -19 -10 -25 -10 -5 0 -3 5 5 10 8 5 20 10 25 10 6 0 3 -5 -5 -10z m-71 -24
c-2 -2 -15 -9 -29 -15 -24 -11 -24 -11 -6 3 16 13 49 24 35 12z m71 -10 c0 -2
-12 -11 -27 -20 l-28 -17 24 20 c23 21 31 25 31 17z m-130 -19 c0 -2 -19 -21
-42 -42 l-43 -40 40 43 c36 39 45 47 45 39z m70 -21 c0 -2 -24 -23 -52 -46
l-53 -42 50 46 c49 45 55 50 55 42z m-181 -93 c-40 -47 -42 -49 -34 -33 10 19
47 60 53 60 3 0 -5 -12 -19 -27z m71 -17 c0 -2 -8 -10 -17 -17 -16 -13 -17
-12 -4 4 13 16 21 21 21 13z m-117 -51 c-3 -9 -8 -14 -10 -11 -3 3 -2 9 2 15
9 16 15 13 8 -4z m69 -25 c-9 -21 -18 -35 -20 -30 -3 9 25 70 33 70 2 0 -4
-18 -13 -40z m-91 -31 c-5 -13 -10 -19 -10 -12 -1 15 10 45 15 40 3 -2 0 -15
-5 -28z m66 -41 c-3 -8 -6 -5 -6 6 -1 11 2 17 5 13 3 -3 4 -12 1 -19z m-90
-110 c-2 -13 -4 -5 -4 17 -1 22 1 32 4 23 2 -10 2 -28 0 -40z m2239 -60 l19
-21 -27 18 c-29 18 -34 25 -20 25 5 0 17 -10 28 -22z m-2229 -10 c-3 -8 -6 -5
-6 6 -1 11 2 17 5 13 3 -3 4 -12 1 -19z m10 -40 c-3 -8 -6 -5 -6 6 -1 11 2 17
5 13 3 -3 4 -12 1 -19z m1144 -57 c400 -72 741 -247 1026 -529 84 -82 206
-227 237 -282 5 -8 -29 22 -75 66 -111 107 -232 183 -364 228 -36 13 -60 29
-85 61 -37 46 -116 115 -133 115 -5 0 23 -34 62 -76 40 -41 76 -85 80 -96 11
-29 -12 -158 -54 -312 -19 -72 -37 -132 -39 -134 -3 -2 -96 -5 -208 -7 -171
-2 -378 -20 -478 -40 -21 -5 -45 12 -140 96 -63 55 -173 146 -244 202 -71 56
-140 111 -152 122 l-24 20 38 110 c40 115 115 291 135 319 19 26 78 36 237 43
141 5 204 -1 417 -42 27 -5 27 -4 -4 10 -106 49 -405 79 -570 57 -73 -10 -91
-9 -160 9 -85 22 -277 31 -348 16 -22 -5 -37 -6 -34 -3 9 10 229 57 304 66
123 15 446 4 576 -19z m-894 -57 c-3 -3 -12 -4 -19 -1 -8 3 -5 6 6 6 11 1 17
-2 13 -5z m161 -35 c-87 -9 -242 -44 -266 -60 -20 -13 -15 -12 100 19 43 12
117 23 165 26 l88 5 -95 -13 c-175 -25 -320 -72 -420 -137 -65 -42 -75 -46
-64 -26 4 7 3 9 -2 4 -5 -5 -9 -12 -9 -17 0 -4 -41 -47 -92 -94 -51 -48 -106
-105 -124 -127 l-31 -39 26 -35 27 -35 -35 23 c-27 17 -33 27 -29 42 5 17 4
18 -10 6 -9 -7 -15 -16 -13 -20 3 -4 1 -13 -5 -21 -7 -12 -9 -11 -9 5 0 42
126 194 244 293 151 126 382 211 571 210 l60 -1 -77 -8z m-358 -13 c0 -3 -13
-11 -30 -20 -16 -8 -30 -11 -30 -6 0 7 23 18 58 29 1 1 2 -1 2 -3z m6530 -46
c-8 -5 -19 -10 -25 -10 -5 0 -3 5 5 10 8 5 20 10 25 10 6 0 3 -5 -5 -10z
m-6660 -15 c-7 -8 -9 -15 -5 -15 4 0 -19 -20 -51 -43 -81 -60 -245 -232 -294
-309 -23 -34 -53 -69 -68 -77 -62 -32 -215 -156 -290 -236 -80 -84 -81 -85
-96 -63 -8 12 -12 26 -9 32 33 57 118 173 179 245 150 179 326 321 539 433 96
50 115 57 95 33z m6675 -25 c3 -5 -1 -10 -10 -10 -9 0 -13 5 -10 10 3 6 8 10
10 10 2 0 7 -4 10 -10z m836 -127 c13 -16 12 -17 -3 -4 -10 7 -18 15 -18 17 0
8 8 3 21 -13z m-8465 -58 c-20 -15 -36 -19 -36 -10 0 5 38 23 50 24 3 0 -4 -6
-14 -14z m3080 -205 c167 -76 389 -275 473 -423 63 -112 118 -245 157 -381 37
-128 40 -165 7 -102 l-20 39 -7 -69 c-11 -104 -109 -376 -143 -397 -5 -3 -41
15 -82 39 -41 23 -121 67 -179 96 -57 29 -106 58 -107 63 -79 262 -157 449
-271 647 l-46 79 30 122 c17 67 38 160 47 207 24 124 22 121 53 114 15 -3 55
-19 88 -34z m-1364 -136 c222 -168 368 -305 368 -344 -1 -29 -125 -729 -131
-734 -2 -2 -147 -70 -322 -150 -277 -127 -321 -145 -340 -135 -67 35 -334 251
-466 376 l-74 71 6 108 c4 60 15 161 27 224 22 129 84 354 105 387 34 51 369
216 575 284 l85 28 33 -19 c18 -11 78 -54 134 -96z m-1650 -360 c-22 -44 -50
-109 -62 -146 -13 -37 -26 -66 -28 -63 -4 3 26 106 45 155 3 8 2 12 -2 8 -4
-4 -22 -47 -41 -95 -39 -104 -46 -97 -8 9 34 93 80 186 108 216 36 40 31 2
-12 -84z m5134 10 l21 -5 -28 -157 c-15 -86 -32 -209 -39 -272 -15 -150 -17
-160 -38 -160 -11 0 -6 -7 16 -21 28 -19 32 -26 31 -62 l-2 -42 -6 40 -6 40
-8 -34 -7 -34 -52 7 c-67 9 -68 10 -68 55 0 29 5 40 23 49 17 8 18 11 5 11
-21 1 -21 -8 -8 122 22 222 66 397 111 445 25 26 25 26 55 18z m-2843 -11 c-7
-2 -19 -2 -25 0 -7 3 -2 5 12 5 14 0 19 -2 13 -5z m-76 -9 c-3 -3 -12 -4 -19
-1 -8 3 -5 6 6 6 11 1 17 -2 13 -5z m56 -21 c-7 -2 -19 -2 -25 0 -7 3 -2 5 12
5 14 0 19 -2 13 -5z m4457 -42 c0 -4 -4 -21 -10 -37 -5 -16 -37 -184 -70 -374
-33 -190 -70 -398 -81 -463 -21 -111 -21 -120 -6 -153 16 -33 16 -34 -6 -39
-44 -10 -269 -36 -274 -31 -2 2 0 21 6 42 13 49 102 536 99 540 -2 1 -66 -103
-142 -232 l-139 -234 -37 0 -38 0 -19 73 c-11 39 -35 129 -54 199 -19 71 -36
128 -39 128 -3 0 -11 -33 -17 -72 -6 -40 -30 -171 -54 -290 l-41 -217 -57 -7
c-31 -3 -93 -12 -138 -18 -46 -7 -83 -11 -83 -9 0 1 9 22 20 45 11 24 33 111
49 193 17 83 57 282 90 443 58 279 60 295 46 329 -8 19 -15 39 -15 42 0 9 308
56 316 49 3 -3 28 -93 55 -199 28 -107 52 -200 55 -208 3 -9 12 0 25 25 12 21
49 86 83 144 34 58 88 148 119 201 l57 97 122 20 c141 23 178 25 178 13z
m-2849 -153 c25 -43 30 -47 25 -23 -5 21 -4 26 3 16 5 -8 12 -62 15 -120 4
-58 9 -128 12 -154 l5 -48 -38 3 c-37 3 -37 3 -49 63 -7 33 -14 78 -15 100 -4
62 0 215 6 215 2 0 19 -24 36 -52z m-3974 -30 c-3 -7 -5 -2 -5 12 0 14 2 19 5
13 2 -7 2 -19 0 -25z m-40 -40 c-3 -7 -5 -2 -5 12 0 14 2 19 5 13 2 -7 2 -19
0 -25z m30 0 c-3 -8 -6 -5 -6 6 -1 11 2 17 5 13 3 -3 4 -12 1 -19z m4035 -286
c4 -4 10 -20 14 -36 7 -28 6 -28 -27 -21 -47 10 -49 12 -49 47 0 28 2 30 28
23 15 -3 30 -9 34 -13z m-747 -146 c91 -42 257 -139 274 -160 23 -27 35 -252
22 -405 -20 -246 -26 -272 -91 -369 -95 -146 -248 -293 -394 -382 -39 -24 -39
-24 -90 -6 -75 27 -264 120 -333 165 l-59 38 22 134 c30 176 54 382 54 463 l0
64 53 42 c119 95 263 231 359 337 56 62 103 113 105 113 2 0 38 -15 78 -34z
m729 -25 c4 -5 -3 -7 -14 -4 -23 6 -26 13 -6 13 8 0 17 -4 20 -9z m-15 -73 c0
-35 -4 -83 -9 -108 -6 -34 -7 -19 -6 62 0 60 4 108 9 108 4 0 7 -28 6 -62z
m1130 43 c11 -7 13 -30 8 -114 -4 -57 -11 -115 -16 -128 -5 -13 -10 -18 -10
-10 -1 8 -4 12 -7 8 -3 -3 -19 -1 -36 5 l-31 11 7 110 c4 61 10 115 12 119 7
11 56 10 73 -1z m-1101 -88 c-2 -67 -6 -87 -18 -90 -13 -4 -13 -3 -1 5 11 8
13 28 8 91 -3 48 -1 81 4 81 6 0 9 -37 7 -87z"/>
<path d="M7953 10193 c4 -6 26 -26 49 -45 23 -18 39 -28 35 -21 -4 6 -26 26
-49 45 -23 18 -39 28 -35 21z"/>
<path d="M7374 9206 c-34 -8 -76 -22 -93 -30 -31 -17 -41 -10 -19 12 46 46
-89 -36 -141 -85 -49 -48 -53 -50 -45 -28 11 29 -12 15 -49 -30 -78 -93 -117
-206 -119 -341 -1 -89 18 -145 58 -171 20 -13 27 -10 87 36 86 66 192 135 242
156 198 85 404 83 590 -4 95 -45 227 -142 290 -214 l45 -52 -6 35 c-33 185
-107 341 -215 455 -27 28 -46 54 -43 57 3 3 -11 19 -30 34 -62 51 -148 98
-230 126 -45 15 -74 27 -66 27 9 1 11 4 4 11 -17 17 -194 21 -260 6z"/>
<path d="M5387 8859 c10 -12 -4 -14 -96 -11 -87 3 -123 0 -185 -17 -129 -36
-352 -159 -363 -202 -3 -11 -9 -19 -13 -19 -12 0 -109 -90 -121 -112 -10 -18
-9 -19 13 -7 22 11 21 10 -4 -17 -71 -76 -146 -243 -173 -385 -16 -87 -21
-269 -6 -269 5 0 15 15 22 33 28 67 130 206 206 278 138 131 278 211 461 261
60 17 107 21 212 22 139 0 197 -8 336 -50 107 -31 132 -31 144 2 23 58 2 169
-48 254 -34 60 -106 135 -166 176 -53 35 -71 37 -42 5 13 -14 -5 -8 -60 19
-94 47 -135 60 -117 39z"/>
<path d="M7364 8482 c-136 -48 -262 -162 -327 -294 -20 -42 -37 -80 -37 -84 0
-4 22 24 49 62 67 96 180 200 256 235 131 62 271 72 407 29 33 -10 58 -17 56
-15 -1 2 -34 20 -73 40 -65 35 -77 38 -175 42 -84 3 -115 0 -156 -15z"/>
<path d="M7403 8375 c-154 -42 -280 -139 -369 -286 -153 -253 -151 -788 5
-1064 l29 -51 -81 13 c-105 18 -268 11 -362 -16 -193 -55 -356 -168 -435 -302
-17 -30 -41 -69 -53 -88 -11 -19 -16 -31 -9 -27 16 10 15 6 -9 -49 l-21 -47
24 -25 c26 -29 78 -58 78 -44 0 4 -7 14 -14 21 -30 24 -53 157 -32 185 8 12
10 1 8 -49 -3 -49 1 -73 16 -102 33 -65 89 -105 145 -104 18 1 15 5 -15 20
-100 53 -133 195 -72 312 42 81 170 183 292 233 193 78 457 79 659 3 104 -40
183 -145 183 -244 0 -60 -31 -137 -69 -173 l-36 -33 32 16 c77 39 123 140 104
227 -6 25 -13 53 -17 63 -6 15 0 16 50 10 51 -6 63 -4 121 25 115 58 212 189
245 330 8 34 11 92 7 160 -8 177 -64 300 -190 418 -85 79 -152 107 -262 107
-71 1 -88 -3 -147 -32 -118 -58 -219 -202 -234 -335 -5 -46 -9 -55 -17 -42
-12 22 0 226 19 318 17 83 55 181 100 257 113 193 337 299 541 256 201 -42
364 -185 478 -420 85 -175 99 -239 100 -436 0 -156 -2 -170 -29 -254 -26 -80
-114 -235 -134 -236 -4 -1 -23 -15 -42 -32 l-35 -31 53 29 c52 29 126 109 171
185 68 116 108 333 90 499 -37 361 -218 662 -475 789 -116 57 -279 76 -391 46z
m157 -690 c72 -37 85 -156 23 -205 -15 -12 -41 -20 -64 -20 -109 0 -158 164
-65 221 37 23 67 24 106 4z m10 -660 c14 -19 14 -19 -2 -6 -10 7 -18 18 -18
24 0 6 1 8 3 6 1 -2 9 -13 17 -24z m-309 -32 c13 -15 12 -15 -8 -4 -24 12 -29
21 -14 21 5 0 15 -7 22 -17z m-457 -13 c-39 -4 -90 -11 -115 -15 -24 -4 -41
-5 -38 -1 9 9 110 24 169 23 53 0 53 0 -16 -7z m-167 -26 c-3 -3 -12 -4 -19
-1 -8 3 -5 6 6 6 11 1 17 -2 13 -5z"/>
<path d="M5285 8156 c-86 -20 -196 -66 -188 -79 4 -7 0 -8 -13 -3 -10 4 -15 4
-11 0 4 -4 -14 -22 -41 -39 -26 -18 -67 -51 -92 -74 -43 -40 -42 -40 16 6 241
188 546 200 791 32 26 -18 83 -67 127 -108 l80 -76 -42 60 c-93 132 -205 224
-325 265 -80 27 -220 35 -302 16z"/>
<path d="M5244 8035 c-74 -16 -202 -79 -272 -134 -125 -99 -240 -289 -283
-466 -28 -114 -31 -341 -6 -451 46 -202 154 -388 286 -492 44 -35 59 -40 173
-60 123 -22 361 -31 371 -14 3 4 -48 6 -113 4 -132 -4 -267 16 -337 49 -67 32
-168 149 -218 254 -68 139 -90 240 -89 415 0 129 4 155 28 235 97 319 322 516
606 532 71 4 111 1 160 -12 344 -90 612 -515 587 -929 -8 -119 -28 -201 -68
-275 -20 -39 -23 -49 -10 -37 56 51 111 245 111 390 0 395 -196 783 -468 929
-134 71 -307 95 -458 62z"/>
<path d="M5950 7806 c0 -2 8 -10 18 -17 15 -13 16 -12 3 4 -13 16 -21 21 -21
13z"/>
<path d="M5485 7527 c-245 -63 -392 -349 -330 -642 66 -312 378 -507 621 -388
169 82 267 251 268 463 1 179 -60 325 -187 448 -113 108 -247 151 -372 119z
m313 -131 c36 -20 62 -66 62 -113 0 -33 -7 -50 -30 -77 -60 -67 -145 -53 -181
30 -39 88 3 174 85 174 23 -1 51 -6 64 -14z m-329 -708 c-40 -34 -71 -10 -43
31 15 20 16 20 39 4 l24 -18 -20 -17z"/>
<path d="M7533 6763 c9 -2 23 -2 30 0 6 3 -1 5 -18 5 -16 0 -22 -2 -12 -5z"/>
<path d="M7106 6650 c-62 -57 -87 -117 -111 -264 -6 -34 -5 -38 8 -28 8 7 20
26 27 42 6 16 19 31 27 35 13 4 14 3 3 -10 -7 -8 -9 -15 -5 -15 4 0 1 -8 -6
-17 -8 -9 13 2 47 24 76 52 174 157 174 186 0 16 -5 12 -19 -18 -10 -22 -31
-51 -46 -65 -27 -24 -27 -23 4 16 61 78 49 154 -26 154 -25 0 -44 -10 -77 -40z"/>
<path d="M7261 6654 c0 -11 3 -14 6 -6 3 7 2 16 -1 19 -3 4 -6 -2 -5 -13z"/>
<path d="M6395 6631 c-11 -5 -29 -19 -40 -32 l-20 -24 22 18 c12 11 39 25 60
33 21 7 29 13 18 13 -11 0 -29 -4 -40 -8z"/>
<path d="M6440 6583 c-56 -20 -77 -85 -43 -132 9 -14 11 -21 5 -17 -7 4 -12 4
-12 1 0 -24 300 -110 338 -98 16 6 15 56 -2 97 -41 99 -199 181 -286 149z
m127 -199 c-3 -3 -12 -4 -19 -1 -8 3 -5 6 6 6 11 1 17 -2 13 -5z m50 -10 c-3
-3 -12 -4 -19 -1 -8 3 -5 6 6 6 11 1 17 -2 13 -5z"/>
<path d="M8365 6495 c-5 -2 -29 -9 -52 -15 -24 -6 -43 -16 -43 -22 0 -5 9 -8
20 -5 11 3 20 1 20 -3 0 -4 9 -6 20 -3 11 3 41 2 66 -2 44 -6 45 -8 39 -33
-13 -53 -102 -186 -178 -268 -95 -101 -212 -191 -356 -272 -719 -408 -1928
-467 -2696 -130 -91 40 -265 138 -265 149 0 16 184 84 200 74 3 -2 19 5 35 15
l28 19 -39 -4 c-21 -3 -79 -7 -129 -9 -238 -14 -406 -140 -422 -317 -7 -67 15
-208 29 -187 5 8 8 1 8 -19 0 -17 3 -34 8 -37 4 -2 3 34 -2 80 -6 56 -6 91 1
106 9 19 10 12 7 -32 -3 -51 -2 -53 9 -25 21 53 37 74 65 89 39 20 59 8 142
-81 42 -45 64 -63 51 -43 -30 48 -112 210 -106 210 2 0 17 -24 31 -52 34 -67
178 -306 246 -406 213 -318 507 -645 733 -814 225 -169 460 -279 715 -334 121
-27 468 -27 588 -1 512 113 813 402 1104 1061 86 196 211 610 271 901 l15 70
2 -50 1 -50 20 55 c22 65 61 104 92 94 31 -9 58 -35 72 -68 l13 -29 6 29 c4
17 2 41 -3 55 -7 17 -10 19 -10 7 -1 -20 -16 -24 -27 -6 -4 6 -3 8 3 5 18 -11
24 23 9 51 -26 49 -123 122 -140 105 -3 -4 -6 -1 -6 5 0 16 5 15 48 -7 75 -39
137 -129 149 -217 8 -61 23 -37 23 37 0 79 -32 176 -75 226 -20 23 -61 54 -92
70 -47 23 -72 28 -147 30 -50 1 -95 1 -101 -2z m192 -187 c-3 -7 -5 -2 -5 12
0 14 2 19 5 13 2 -7 2 -19 0 -25z m-10 -70 c-3 -7 -5 -2 -5 12 0 14 2 19 5 13
2 -7 2 -19 0 -25z m-10 -65 c-3 -10 -5 -4 -5 12 0 17 2 24 5 18 2 -7 2 -21 0
-30z m-463 -330 c-24 -123 -41 -164 -105 -249 -59 -78 -154 -148 -168 -125 -5
7 -12 2 -21 -13 -19 -37 -147 -116 -186 -116 -10 0 -25 -6 -33 -14 -23 -20
-191 -80 -291 -105 -239 -58 -478 -84 -710 -77 -91 2 -183 5 -205 5 -86 1
-258 31 -277 48 -14 12 -21 14 -26 6 -14 -23 -254 40 -289 75 -9 9 -27 15 -39
14 -34 -5 -178 74 -228 124 -34 34 -116 166 -116 187 0 3 33 -5 73 -17 39 -13
105 -31 145 -40 67 -17 72 -20 72 -45 0 -14 7 -34 14 -44 13 -16 14 -14 9 24
l-6 42 34 -7 c185 -38 408 -57 661 -56 304 0 509 21 768 76 194 42 345 87 490
144 58 23 119 48 135 54 35 14 59 28 198 113 56 34 105 62 108 63 4 0 1 -30
-7 -67z m-3313 -80 c-12 -10 -33 -31 -46 -48 -13 -16 -24 -27 -25 -23 0 12 71
88 82 88 6 0 1 -8 -11 -17z m3059 -1142 c0 -29 -28 -71 -88 -133 -148 -155
-356 -265 -588 -313 -310 -64 -629 -26 -921 110 -93 44 -126 68 -55 40 49 -19
216 -60 322 -79 321 -57 730 -1 994 138 97 51 160 111 183 176 14 38 23 50 48
58 39 13 105 15 105 3z m-486 -113 c-5 -9 -2 -9 9 1 31 25 19 -9 -13 -39 -87
-81 -378 -139 -550 -110 -98 17 -76 25 107 39 146 10 242 35 378 97 57 26 80
30 69 12z"/>
<path d="M7680 4555 c0 -8 9 -10 25 -7 14 2 25 6 25 7 0 1 -11 5 -25 7 -16 3
-25 1 -25 -7z"/>
<path d="M8331 6437 c2 -1 11 -8 20 -15 13 -9 16 -9 16 3 0 8 -9 15 -20 15
-11 0 -18 -1 -16 -3z"/>
<path d="M8381 6384 c0 -11 3 -14 6 -6 3 7 2 16 -1 19 -3 4 -6 -2 -5 -13z"/>
<path d="M5060 5937 c-112 -40 -112 -40 -49 -80 62 -40 159 -90 164 -85 2 2
-30 21 -71 42 -69 36 -74 40 -59 56 8 9 12 21 8 26 -5 5 3 0 17 -11 22 -18 23
-18 10 -1 -13 16 -11 21 20 47 19 16 33 28 30 29 -3 0 -34 -11 -70 -23z"/>
<path d="M4125 5890 c-4 -23 -5 -43 -2 -46 2 -3 7 14 11 37 4 23 5 44 2 46 -2
2 -7 -14 -11 -37z"/>
<path d="M4599 5893 c-13 -16 -12 -17 4 -4 9 7 17 15 17 17 0 8 -8 3 -21 -13z"/>
<path d="M4569 5853 c-13 -16 -12 -17 4 -4 16 13 21 21 13 21 -2 0 -10 -8 -17
-17z"/>
<path d="M4113 5750 c0 -47 2 -66 4 -42 2 23 2 61 0 85 -2 23 -4 4 -4 -43z"/>
<path d="M4625 5789 c-4 -6 -5 -12 -2 -15 2 -3 7 2 10 11 7 17 1 20 -8 4z"/>
<path d="M5240 5740 c8 -5 20 -10 25 -10 6 0 3 5 -5 10 -8 5 -19 10 -25 10 -5
0 -3 -5 5 -10z"/>
<path d="M5528 5643 c7 -3 16 -2 19 1 4 3 -2 6 -13 5 -11 0 -14 -3 -6 -6z"/>
<path d="M4122 5615 c0 -16 2 -22 5 -12 2 9 2 23 0 30 -3 6 -5 -1 -5 -18z"/>
<path d="M4577 5634 c-6 -10 11 -80 18 -72 2 2 0 21 -4 43 -3 22 -10 35 -14
29z"/>
<path d="M4132 5560 c0 -14 2 -19 5 -12 2 6 2 18 0 25 -3 6 -5 1 -5 -13z"/>
<path d="M8357 4893 c-2 -5 -17 -30 -32 -58 -16 -27 -24 -45 -18 -40 14 14 66
105 60 105 -3 0 -8 -3 -10 -7z"/>
<path d="M8276 4755 c-9 -14 -23 -37 -32 -52 l-16 -28 20 24 c24 29 55 81 49
81 -3 0 -12 -11 -21 -25z"/>
<path d="M7979 4293 c-13 -16 -12 -17 4 -4 9 7 17 15 17 17 0 8 -8 3 -21 -13z"/>
<path d="M7825 4118 c-28 -29 -43 -47 -34 -40 9 6 19 8 23 4 4 -4 6 0 4 8 -1
8 2 14 8 13 14 -3 47 32 50 52 1 8 1 15 0 15 -1 0 -24 -23 -51 -52z m45 29 c0
-2 -10 -12 -22 -23 l-23 -19 19 23 c18 21 26 27 26 19z"/>
<path d="M7646 4096 c-26 -17 -70 -45 -97 -63 -27 -18 -47 -28 -44 -23 3 5
-25 -2 -62 -17 -106 -40 -178 -61 -303 -87 -63 -13 -100 -25 -82 -25 49 -1
175 26 275 60 98 34 132 34 40 1 -223 -81 -512 -108 -728 -69 -108 20 -285 74
-285 87 0 6 -5 10 -12 10 -12 0 -162 75 -235 117 -24 14 -43 22 -43 19 0 -3
30 -22 68 -42 37 -21 79 -48 94 -60 38 -31 278 -147 357 -174 74 -24 232 -50
311 -50 231 0 462 79 650 223 88 68 159 127 150 126 -3 -1 -27 -15 -54 -33z"/>
<path d="M7519 3963 c-13 -16 -12 -17 4 -4 16 13 21 21 13 21 -2 0 -10 -8 -17
-17z"/>
<path d="M6455 3930 c11 -5 27 -9 35 -9 9 0 8 4 -5 9 -11 5 -27 9 -35 9 -9 0
-8 -4 5 -9z"/>
<path d="M6698 3883 c12 -2 30 -2 40 0 9 3 -1 5 -23 4 -22 0 -30 -2 -17 -4z"/>
<path d="M6823 3873 c37 -2 97 -2 135 0 37 2 6 3 -68 3 -74 0 -105 -1 -67 -3z"/>
<path d="M6194 3816 c11 -9 24 -16 30 -16 12 0 7 5 -24 19 -24 11 -24 11 -6
-3z"/>
<path d="M7120 3765 c0 -14 2 -25 4 -25 2 0 6 11 8 25 3 14 1 25 -3 25 -5 0
-9 -11 -9 -25z"/>
<path d="M7360 3745 c-14 -8 -20 -14 -15 -14 6 0 21 6 35 14 14 8 21 14 15 14
-5 0 -21 -6 -35 -14z"/>
<path d="M6350 3740 c8 -5 20 -10 25 -10 6 0 3 5 -5 10 -8 5 -19 10 -25 10 -5
0 -3 -5 5 -10z"/>
<path d="M7300 3720 c-8 -5 -10 -10 -5 -10 6 0 17 5 25 10 8 5 11 10 5 10 -5
0 -17 -5 -25 -10z"/>
<path d="M7185 3685 c-22 -8 -31 -13 -20 -13 11 0 36 6 55 13 45 17 18 17 -35
0z"/>
<path d="M6608 3663 c6 -2 18 -2 25 0 6 3 1 5 -13 5 -14 0 -19 -2 -12 -5z"/>
<path d="M7108 3663 c6 -2 18 -2 25 0 6 3 1 5 -13 5 -14 0 -19 -2 -12 -5z"/>
<path d="M6673 3653 c9 -2 23 -2 30 0 6 3 -1 5 -18 5 -16 0 -22 -2 -12 -5z"/>
<path d="M7043 3653 c9 -2 25 -2 35 0 9 3 1 5 -18 5 -19 0 -27 -2 -17 -5z"/>
<path d="M6748 3643 c12 -2 32 -2 45 0 12 2 2 4 -23 4 -25 0 -35 -2 -22 -4z"/>
<path d="M6928 3643 c17 -2 47 -2 65 0 17 2 3 4 -33 4 -36 0 -50 -2 -32 -4z"/>
<path d="M10031 7274 c0 -11 3 -14 6 -6 3 7 2 16 -1 19 -3 4 -6 -2 -5 -13z"/>
<path d="M10225 6700 c-14 -27 -23 -50 -20 -50 2 0 16 23 30 50 14 28 23 50
20 50 -2 0 -16 -22 -30 -50z"/>
<path d="M10046 6452 c-38 -42 -50 -59 -27 -37 39 37 107 115 99 115 -1 0 -34
-35 -72 -78z"/>
<path d="M10100 6440 c-6 -11 -8 -20 -6 -20 3 0 10 9 16 20 6 11 8 20 6 20 -3
0 -10 -9 -16 -20z"/>
<path d="M9915 6339 c-63 -49 -178 -106 -231 -115 -67 -10 -68 -12 -58 -98 l9
-76 62 29 c89 42 175 103 247 175 59 58 43 48 -34 -22 -55 -50 -107 -57 -62
-9 12 13 22 27 22 32 0 4 -9 -2 -20 -15 -11 -13 -20 -18 -20 -11 0 7 -4 9 -10
6 -5 -3 -10 -1 -10 5 0 6 -6 8 -12 4 -35 -20 6 10 72 54 41 27 81 56 89 65 19
24 12 20 -44 -24z m-171 -123 c-3 -9 -12 -12 -21 -9 -11 4 -14 2 -9 -5 4 -7
18 -12 31 -12 18 0 23 -4 18 -16 -5 -13 -7 -13 -14 -2 -6 9 -9 9 -9 1 0 -23
19 -23 35 -1 12 16 19 19 22 10 3 -6 9 -9 14 -6 6 4 6 11 -1 19 -6 7 -7 15 -3
18 5 3 14 -6 20 -20 11 -22 10 -26 -7 -30 -11 -3 -20 -10 -20 -17 0 -6 -5 -4
-10 4 -8 13 -10 13 -10 -1 0 -16 -124 -89 -133 -79 -3 3 -8 32 -12 65 l-6 61
58 15 c32 9 59 17 60 18 1 0 0 -5 -3 -13z"/>
<path d="M9674 6174 c-2 -24 21 -40 32 -22 4 7 9 6 15 -3 5 -8 9 -9 9 -3 0 5
-12 19 -27 31 l-28 20 -1 -23z"/>
<path d="M9650 6180 c0 -5 5 -10 11 -10 5 0 7 5 4 10 -3 6 -8 10 -11 10 -2 0
-4 -4 -4 -10z"/>
<path d="M2544 8464 c-18 -14 -18 -15 4 -4 12 6 22 13 22 15 0 8 -5 6 -26 -11z"/>
<path d="M3200 7403 c13 -18 25 -33 27 -33 8 0 -17 38 -33 51 -11 9 -9 2 6
-18z"/>
<path d="M2468 7233 c7 -3 16 -2 19 1 4 3 -2 6 -13 5 -11 0 -14 -3 -6 -6z"/>
<path d="M3336 7207 c3 -10 9 -15 12 -12 3 3 0 11 -7 18 -10 9 -11 8 -5 -6z"/>
<path d="M3496 6812 c7 -37 34 -96 33 -72 0 8 -9 35 -20 60 -17 40 -19 41 -13
12z"/>
<path d="M3531 6715 c1 -19 18 -51 18 -35 0 8 -4 22 -9 30 -5 8 -9 11 -9 5z"/>
<path d="M3551 6644 c0 -11 3 -14 6 -6 3 7 2 16 -1 19 -3 4 -6 -2 -5 -13z"/>
<path d="M3379 6625 c5 -11 17 -29 26 -40 l16 -20 -10 20 c-5 11 -17 29 -26
40 l-16 20 10 -20z"/>
<path d="M3510 6011 c0 -8 -7 -11 -17 -6 -15 5 -16 4 -5 -6 9 -10 15 -10 24
-1 6 6 9 15 5 19 -4 3 -7 1 -7 -6z"/>
<path d="M3331 5980 c-1 -48 62 -154 111 -188 13 -9 4 5 -19 30 -47 52 -69 91
-82 145 -7 28 -9 31 -10 13z"/>
<path d="M3526 5905 c-3 -9 -6 -22 -5 -28 0 -7 5 -1 10 12 5 13 8 26 5 28 -2
2 -6 -3 -10 -12z"/>
<path d="M1950 5885 c0 -5 5 -17 10 -25 5 -8 10 -10 10 -5 0 6 -5 17 -10 25
-5 8 -10 11 -10 5z"/>
<path d="M3506 5845 c-3 -9 -6 -29 -5 -43 1 -22 3 -19 10 12 10 40 6 60 -5 31z"/>
<path d="M1970 5835 c0 -5 5 -17 10 -25 5 -8 10 -10 10 -5 0 6 -5 17 -10 25
-5 8 -10 11 -10 5z"/>
<path d="M2000 5766 c0 -11 30 -66 36 -66 2 0 -3 15 -12 33 -19 36 -24 44 -24
33z"/>
<path d="M2075 5620 c9 -16 18 -30 21 -30 2 0 -2 14 -11 30 -9 17 -18 30 -21
30 -2 0 2 -13 11 -30z"/>
<path d="M2220 5555 c35 -36 67 -65 69 -65 3 0 -24 29 -59 65 -35 36 -67 65
-69 65 -3 0 24 -29 59 -65z"/>
<path d="M2115 5560 c10 -11 20 -20 23 -20 3 0 -3 9 -13 20 -10 11 -20 20 -23
20 -3 0 3 -9 13 -20z"/>
<path d="M3453 5508 c-7 -42 -7 -42 -14 -13 -6 26 -7 23 -8 -18 0 -26 -10 -73
-21 -104 -25 -71 -25 -78 0 -33 10 19 22 53 26 75 3 22 10 42 14 45 8 6 23 90
15 90 -3 0 -8 -19 -12 -42z"/>
<path d="M2200 5466 c24 -25 46 -46 48 -46 9 0 -64 78 -78 85 -8 3 5 -14 30
-39z"/>
<path d="M2320 5466 c0 -2 8 -10 18 -17 15 -13 16 -12 3 4 -13 16 -21 21 -21
13z"/>
<path d="M2620 5280 c8 -5 20 -10 25 -10 6 0 3 5 -5 10 -8 5 -19 10 -25 10 -5
0 -3 -5 5 -10z"/>
<path d="M2640 5166 c14 -7 36 -16 50 -20 14 -3 7 3 -15 13 -45 22 -73 27 -35
7z"/>
<path d="M2775 5150 c-3 -5 -1 -10 4 -10 6 0 11 5 11 10 0 6 -2 10 -4 10 -3 0
-8 -4 -11 -10z"/>
<path d="M2928 5103 c7 -3 16 -2 19 1 4 3 -2 6 -13 5 -11 0 -14 -3 -6 -6z"/>
<path d="M9107 7223 c-3 -5 4 -15 16 -23 21 -12 21 -12 7 6 -8 10 -15 20 -16
22 -1 2 -4 -1 -7 -5z"/>
<path d="M10954 5578 c-19 -23 -19 -23 2 -5 11 9 24 14 27 10 4 -3 7 -1 7 5 0
19 -15 14 -36 -10z"/>
<path d="M11339 5443 c-13 -16 -12 -17 4 -4 9 7 17 15 17 17 0 8 -8 3 -21 -13z"/>
<path d="M11200 5350 c-20 -16 -21 -19 -5 -14 18 6 17 4 -5 -22 l-25 -29 31
28 c17 15 31 34 31 42 0 8 -1 15 -1 15 -1 0 -12 -9 -26 -20z"/>
<path d="M2360 5076 c0 -2 7 -7 16 -10 8 -3 12 -2 9 4 -6 10 -25 14 -25 6z"/>
<path d="M3230 4130 c-8 -5 -10 -10 -5 -10 6 0 17 5 25 10 8 5 11 10 5 10 -5
0 -17 -5 -25 -10z"/>
<path d="M3174 4105 c-18 -13 -18 -14 4 -8 12 3 25 9 28 14 8 14 -10 11 -32
-6z"/>
<path d="M3009 3993 c-13 -16 -12 -17 4 -4 16 13 21 21 13 21 -2 0 -10 -8 -17
-17z"/>
<path d="M2902 3902 c-80 -88 -112 -127 -112 -137 0 -4 12 8 27 27 14 18 60
68 102 111 42 42 71 77 65 77 -6 0 -42 -35 -82 -78z"/>
<path d="M2171 3270 c-12 -22 -20 -40 -18 -40 7 0 48 72 44 76 -2 2 -14 -14
-26 -36z"/>
<path d="M10712 3549 c-13 -16 -25 -46 -27 -66 -3 -21 -2 -29 1 -18 12 46 26
72 39 72 8 0 13 -3 12 -6 -1 -3 6 -17 16 -31 9 -13 17 -20 17 -15 0 5 7 0 15
-11 8 -10 15 -15 15 -10 0 5 8 2 18 -5 9 -7 6 -1 -7 13 -12 15 -21 31 -17 36
3 5 -9 23 -27 39 l-32 31 -23 -29z m58 -14 c11 -13 10 -14 -4 -9 -9 3 -16 10
-16 15 0 13 6 11 20 -6z"/>
<path d="M10780 3342 c0 -5 10 -17 22 -28 l21 -19 -18 28 c-18 28 -25 33 -25
19z"/>
</g>
</svg>
